<svg width="900" height="900" viewBox="0 0 900 900" fill="none" xmlns="http://www.w3.org/2000/svg">
  <rect width="900" height="900" rx="36" fill="#F3EDE0"/>
  <rect x="110" y="140" width="680" height="520" rx="18" fill="#FBF8F1"/>
  <rect x="140" y="170" width="166" height="460" rx="12" fill="#EFE9DA"/>
  <rect x="286" y="618" width="328" height="22" rx="11" fill="#D9D0BD"/>
  <ellipse cx="452" cy="706" rx="138" ry="22" fill="#D5CDBB"/>
  <path d="M376 594H528L552 708H352L376 594Z" fill="#C9755E"/>
  <g fill="#87A96B">
    <ellipse cx="350" cy="400" rx="74" ry="124" transform="rotate(-20 350 400)"/>
    <ellipse cx="552" cy="398" rx="74" ry="124" transform="rotate(20 552 398)"/>
    <ellipse cx="450" cy="330" rx="72" ry="132"/>
    <ellipse cx="382" cy="530" rx="68" ry="108" transform="rotate(-8 382 530)"/>
    <ellipse cx="520" cy="530" rx="68" ry="108" transform="rotate(8 520 530)"/>
  </g>
</svg>
