<svg width="900" height="900" viewBox="0 0 900 900" fill="none" xmlns="http://www.w3.org/2000/svg">
  <rect width="900" height="900" rx="36" fill="#FCFAF5"/>
  <circle cx="450" cy="450" r="270" fill="#EFF2E8"/>
  <path d="M450 234V668" stroke="#8D7562" stroke-width="16" stroke-linecap="round"/>
  <path d="M450 220C388 256 348 320 340 390C410 390 464 362 510 312C522 364 564 410 632 446C630 370 604 312 558 266C520 228 484 212 450 220Z" fill="#87A96B"/>
  <path d="M338 430C300 458 276 502 270 552C334 548 386 526 432 486C438 532 466 568 516 598C522 542 510 496 478 460C444 424 400 412 338 430Z" fill="#87A96B"/>
  <path d="M560 430C522 458 498 502 492 552C556 548 608 526 654 486C660 532 688 568 738 598C744 542 732 496 700 460C666 424 622 412 560 430Z" fill="#87A96B"/>
</svg>
