<svg width="900" height="1000" viewBox="0 0 900 1000" fill="none" xmlns="http://www.w3.org/2000/svg">
  <rect width="900" height="1000" rx="36" fill="#F7F4EC"/>
  <ellipse cx="450" cy="850" rx="180" ry="30" fill="#DCD8C7"/>
  <path d="M346 714H554L586 860H314L346 714Z" fill="#C46F58"/>
  <path d="M452 272V724" stroke="#8A715D" stroke-width="14" stroke-linecap="round"/>
  <g fill="#87A96B">
    <path d="M452 196C398 236 372 284 364 336C426 332 468 310 504 262C512 312 544 352 600 388C600 322 578 272 540 230C500 188 474 178 452 196Z"/>
    <path d="M352 352C304 386 280 428 272 482C334 478 380 458 420 410C426 458 452 496 498 530C506 470 492 420 460 384C430 350 392 336 352 352Z"/>
    <path d="M552 356C514 386 494 428 486 476C542 472 588 454 630 416C634 458 656 494 698 524C706 468 696 420 670 386C642 352 604 340 552 356Z"/>
  </g>
  <g fill="#DCE8CF">
    <ellipse cx="444" cy="262" rx="22" ry="10" transform="rotate(-18 444 262)"/>
    <ellipse cx="544" cy="314" rx="24" ry="10" transform="rotate(20 544 314)"/>
    <ellipse cx="364" cy="426" rx="22" ry="10" transform="rotate(-16 364 426)"/>
    <ellipse cx="582" cy="432" rx="22" ry="10" transform="rotate(16 582 432)"/>
    <ellipse cx="456" cy="474" rx="20" ry="10" transform="rotate(8 456 474)"/>
  </g>
</svg>
