<svg width="900" height="900" viewBox="0 0 900 900" fill="none" xmlns="http://www.w3.org/2000/svg">
  <rect width="900" height="900" rx="36" fill="#F4EFE3"/>
  <rect x="110" y="150" width="680" height="520" rx="18" fill="#FAF7F0"/>
  <rect x="620" y="250" width="110" height="420" fill="#E5E0D1"/>
  <rect x="160" y="640" width="560" height="48" rx="12" fill="#D8CFBE"/>
  <ellipse cx="520" cy="710" rx="140" ry="24" fill="#D4CCBB"/>
  <path d="M440 610H600L618 716H422L440 610Z" fill="#A86A49"/>
  <path d="M520 290C486 252 452 228 406 210C410 278 424 328 470 370C426 356 390 352 348 358C370 410 404 444 468 474C412 476 372 492 330 522C396 552 456 556 512 536C480 574 458 614 450 672C516 650 554 610 574 548C594 614 632 650 694 670C688 610 664 570 630 536C686 554 744 550 794 522C752 492 712 476 656 474C718 446 754 410 776 358C732 352 692 356 648 370C694 328 710 278 714 210C664 232 624 258 520 290Z" fill="#87A96B"/>
</svg>
