<svg width="900" height="1000" viewBox="0 0 900 1000" fill="none" xmlns="http://www.w3.org/2000/svg">
  <rect width="900" height="1000" rx="36" fill="#F7F5EE"/>
  <ellipse cx="450" cy="850" rx="180" ry="32" fill="#DCD9C8"/>
  <path d="M350 710H550L575 860H325L350 710Z" fill="#C47A52"/>
  <path d="M452 240C392 168 336 132 268 108C268 208 292 278 376 344C310 316 246 306 174 312C208 390 256 438 352 476C278 484 222 512 160 558C244 602 324 612 410 588C360 636 328 692 316 774C410 748 474 692 498 616C530 694 594 748 686 774C676 694 642 638 594 588C674 612 754 604 828 558C766 512 708 484 636 476C726 438 778 388 812 312C742 306 674 318 610 344C690 278 722 210 724 108C654 132 596 170 452 240Z" fill="#87A96B"/>
  <path d="M446 292V640" stroke="#67875B" stroke-width="16" stroke-linecap="round"/>
</svg>
