<svg width="900" height="900" viewBox="0 0 900 900" fill="none" xmlns="http://www.w3.org/2000/svg">
  <rect width="900" height="900" rx="36" fill="#FCFBF7"/>
  <circle cx="450" cy="450" r="270" fill="#E9F0E2"/>
  <path d="M448 214C362 264 306 330 286 438C314 514 374 578 450 678C532 578 588 514 616 438C596 330 532 264 448 214Z" fill="#87A96B"/>
  <path d="M450 262V664" stroke="#5E7D50" stroke-width="18" stroke-linecap="round"/>
  <path d="M450 350C396 330 350 328 304 338" stroke="#5E7D50" stroke-width="14" stroke-linecap="round"/>
  <path d="M450 418C506 394 550 390 600 402" stroke="#5E7D50" stroke-width="14" stroke-linecap="round"/>
  <path d="M450 506C392 488 352 494 314 516" stroke="#5E7D50" stroke-width="14" stroke-linecap="round"/>
</svg>
