<svg width="900" height="1000" viewBox="0 0 900 1000" fill="none" xmlns="http://www.w3.org/2000/svg">
  <rect width="900" height="1000" rx="36" fill="#F8F5EC"/>
  <ellipse cx="450" cy="848" rx="180" ry="30" fill="#DEDBC9"/>
  <path d="M350 708H550L580 860H320L350 708Z" fill="#D77B62"/>
  <path d="M450 280V724" stroke="#8B745F" stroke-width="14" stroke-linecap="round"/>
  <g fill="#87A96B">
    <ellipse cx="370" cy="274" rx="72" ry="26" transform="rotate(-36 370 274)"/>
    <ellipse cx="534" cy="254" rx="78" ry="24" transform="rotate(34 534 254)"/>
    <ellipse cx="330" cy="382" rx="88" ry="28" transform="rotate(-30 330 382)"/>
    <ellipse cx="578" cy="374" rx="92" ry="28" transform="rotate(28 578 374)"/>
    <ellipse cx="360" cy="500" rx="98" ry="30" transform="rotate(-24 360 500)"/>
    <ellipse cx="560" cy="506" rx="96" ry="30" transform="rotate(24 560 506)"/>
  </g>
</svg>
